  0
SECTION
  2
HEADER
  9
$ACADVER
  1
AC1009
  9
$INSUNITS
 70
4
  9
$EXTMIN
 10
0.0
 20
0.0
 30
0.0
  9
$EXTMAX
 10
200.0
 20
120.0
 30
0.0
  0
ENDSEC
  0
SECTION
  2
TABLES
  0
TABLE
  2
LTYPE
 70
2
  0
LTYPE
  2
CONTINUOUS
 70
0
  3
Solid line
 72
65
 73
0
 40
0.0
  0
LTYPE
  2
DASHED
 70
0
  3
Dashed __ __ __
 72
65
 73
2
 40
0.75
 49
0.5
 49
-0.25
  0
ENDTAB
  0
TABLE
  2
LAYER
 70
7
  0
LAYER
  2
CUT
 70
0
 62
7
  6
CONTINUOUS
  0
LAYER
  2
HOLES
 70
0
 62
8
  6
CONTINUOUS
  0
LAYER
  2
BEND_UP
 70
0
 62
1
  6
CONTINUOUS
  0
LAYER
  2
BEND_DOWN
 70
0
 62
1
  6
DASHED
  0
LAYER
  2
WELD
 70
0
 62
2
  6
CONTINUOUS
  0
LAYER
  2
ENGRAVE
 70
0
 62
8
  6
CONTINUOUS
  0
LAYER
  2
IGNORE
 70
0
 62
9
  6
CONTINUOUS
  0
ENDTAB
  0
ENDSEC
  0
SECTION
  2
BLOCKS
  0
ENDSEC
  0
SECTION
  2
ENTITIES
  0
LINE
  8
CUT
 10
5.0
 20
0.0
 30
0.0
 11
195.0
 21
0.0
 31
0.0
  0
ARC
  8
CUT
 10
195.0
 20
5.0
 30
0.0
 40
5.0
 50
270.0
 51
360.0
  0
LINE
  8
CUT
 10
200.0
 20
5.0
 30
0.0
 11
200.0
 21
115.0
 31
0.0
  0
ARC
  8
CUT
 10
195.0
 20
115.0
 30
0.0
 40
5.0
 50
0.0
 51
90.0
  0
LINE
  8
CUT
 10
195.0
 20
120.0
 30
0.0
 11
5.0
 21
120.0
 31
0.0
  0
ARC
  8
CUT
 10
5.0
 20
115.0
 30
0.0
 40
5.0
 50
90.0
 51
180.0
  0
LINE
  8
CUT
 10
0.0
 20
115.0
 30
0.0
 11
0.0
 21
5.0
 31
0.0
  0
ARC
  8
CUT
 10
5.0
 20
5.0
 30
0.0
 40
5.0
 50
180.0
 51
270.0
  0
CIRCLE
  8
HOLES
 10
25.0
 20
25.0
 30
0.0
 40
3.3235
  0
CIRCLE
  8
HOLES
 10
175.0
 20
25.0
 30
0.0
 40
3.3235
  0
CIRCLE
  8
HOLES
 10
25.0
 20
95.0
 30
0.0
 40
3.3235
  0
CIRCLE
  8
HOLES
 10
175.0
 20
95.0
 30
0.0
 40
3.3235
  0
LINE
  8
BEND_UP
 10
70.0
 20
0.0
 30
0.0
 11
70.0
 21
120.0
 31
0.0
  0
LINE
  8
BEND_DOWN
 10
130.0
 20
0.0
 30
0.0
 11
130.0
 21
120.0
 31
0.0
  0
LINE
  8
ENGRAVE
 10
90.0
 20
60.0
 30
0.0
 11
110.0
 21
60.0
 31
0.0
  0
LINE
  8
WELD
 10
60.0
 20
0.0
 30
0.0
 11
140.0
 21
0.0
 31
0.0
  0
ENDSEC
  0
EOF
